<?xml version="1.0" encoding="UTF-8"?>
<svg xmlns="http://www.w3.org/2000/svg" width="512" height="512" viewBox="0 0 512 512" role="img" aria-label="DigitInvo logo - DI shaped like an invoice">
  <title>DigitInvo Logo</title>
  <desc>Minimal flat logo where the letter D is shaped like an invoice with a folded corner and a simplified QR code, no background.</desc>
  <defs>
    <style>
      :root { --ink:#0B2A38; --accent:#12A6A6; }
      .stroke-ink { stroke: var(--ink); fill: none; stroke-linecap: round; }
      .fill-ink { fill: var(--ink); }
      .fill-accent { fill: var(--accent); }
    </style>
  </defs>

  <!-- D outline shaped like a document -->
  <path class="stroke-ink" stroke-width="56"
        d="M160 128 V384
           M160 128 H320
           A128 128 0 0 1 320 384
           H160" />

  <!-- Folded corner (small triangular flap inside the top-right) -->
  <path class="fill-ink"
        d="M 320 128 L 360 168 L 320 168 Z" />

  <!-- Invoice lines -->
  <rect class="fill-ink" x="196" y="190" width="160" height="16" rx="8"/>
  <rect class="fill-ink" x="196" y="224" width="160" height="16" rx="8"/>

  <!-- Minimal QR code (easy-to-draw blocks) -->
  <g transform="translate(196, 272)">
    <!-- outer guide (invisible) -->
    <rect x="0" y="0" width="160" height="120" fill="none"/>
    <!-- Finder-like squares -->
    <rect class="fill-accent" x="0"   y="0"   width="36" height="36" rx="4"/>
    <rect class="fill-accent" x="124" y="0"   width="36" height="36" rx="4"/>
    <rect class="fill-accent" x="0"   y="84"  width="36" height="36" rx="4"/>
    <!-- Center cross and small dots -->
    <rect class="fill-accent" x="76"  y="52"  width="8"  height="16" rx="4"/>
    <rect class="fill-accent" x="44"  y="52"  width="40" height="8"  rx="4"/>
    <rect class="fill-accent" x="92"  y="36"  width="28" height="12" rx="4"/>
    <rect class="fill-accent" x="60"  y="92"  width="28" height="12" rx="4"/>
    <rect class="fill-accent" x="116" y="76"  width="16" height="16" rx="4"/>
    <rect class="fill-accent" x="52"  y="12"  width="16" height="16" rx="4"/>
    <rect class="fill-accent" x="84"  y="8"   width="12" height="12" rx="3"/>
  </g>
</svg>
